<svg width="132" height="40" viewBox="0 0 132 40" fill="none" xmlns="http://www.w3.org/2000/svg">
<g clip-path="url(#clip0_5304_23612)">
<path d="M31.5146 7.88232L31.4202 7.81518C30.7625 7.35587 30.0633 6.94507 29.3414 6.59045L29.2318 6.53803L29.7723 1.79593L26.5482 5.52989L26.4385 5.5C25.7243 5.3133 24.9986 5.17527 24.2842 5.09311L24.2388 5.0856L24.1707 4.87653L22.5757 0L22.5721 0.0111111L22.5683 0L20.9732 4.87653L20.9051 5.0856L20.8598 5.09311C20.1455 5.17527 19.4199 5.3133 18.7054 5.5L18.5958 5.52989L15.3718 1.79593L15.9123 6.53803L15.8027 6.59045C15.0807 6.94507 14.3815 7.35587 13.7239 7.81518L13.6293 7.88232L10.2428 6.17214L13.3081 11.8402L14.3891 10.8956C15.4436 9.97715 18.3501 7.84116 22.5683 7.83005H22.5757C26.7938 7.84116 29.7004 9.97715 30.7549 10.8956L31.8359 11.8402L34.9011 6.17214L31.5146 7.88232ZM0.00683594 33.2002V32.7603L0.466701 32.6744V29.5692L0.00683594 29.4835V29.0408H3.21385V30.112H2.64706L2.59795 29.5949H1.19539V30.7717H2.67304V31.329H1.19539V32.6517H2.67589L2.72515 32.1232H3.28608V33.2002H0.00683594ZM5.42044 33.2602C5.13292 33.2602 4.866 33.2249 4.6192 33.1545C4.37256 33.0841 4.13256 32.9669 3.89923 32.803V31.8461H4.46301L4.55584 32.4659C4.65801 32.5384 4.78363 32.5965 4.93301 32.6403C5.08239 32.6843 5.24492 32.706 5.42044 32.706C5.59184 32.706 5.73599 32.6818 5.85274 32.6329C5.96933 32.5846 6.05836 32.5163 6.12029 32.429C6.18192 32.3412 6.21281 32.2373 6.21281 32.1174C6.21281 32.0071 6.18572 31.909 6.13154 31.8232C6.07784 31.7376 5.98802 31.6609 5.86288 31.5932C5.73742 31.5256 5.56776 31.4634 5.35375 31.4062C5.03946 31.3223 4.77698 31.2234 4.56597 31.109C4.35481 30.9949 4.19561 30.8577 4.08853 30.6976C3.9816 30.5378 3.92806 30.3492 3.92806 30.1318C3.92806 29.9091 3.9892 29.7121 4.11181 29.5408C4.23426 29.3691 4.4044 29.234 4.62237 29.1348C4.84002 29.0359 5.09158 28.9855 5.37688 28.9835C5.68926 28.9797 5.96553 29.0198 6.20552 29.1033C6.44535 29.1872 6.64843 29.2969 6.81429 29.4321V30.3262H6.26175L6.15768 29.7436C6.07879 29.6883 5.97614 29.6411 5.84973 29.6019C5.72364 29.563 5.57473 29.5434 5.40301 29.5434C5.25633 29.5434 5.12722 29.5672 5.01538 29.6149C4.9037 29.6627 4.81595 29.7295 4.75226 29.8162C4.68874 29.9029 4.6569 30.0063 4.6569 30.1262C4.6569 30.231 4.68478 30.3224 4.74086 30.4004C4.79678 30.4786 4.89008 30.5495 5.02125 30.6134C5.15241 30.6771 5.32967 30.7415 5.55334 30.8063C6.0102 30.9262 6.35633 31.0919 6.59156 31.3033C6.82665 31.5146 6.9445 31.7843 6.9445 32.1118C6.9445 32.3423 6.8813 32.5436 6.75489 32.7159C6.62863 32.8883 6.45121 33.0221 6.22294 33.1173C5.99436 33.2127 5.7268 33.2602 5.42044 33.2602ZM8.34404 33.2002V32.7603L8.80359 32.6744V29.5919H7.95641L7.89273 30.1234H7.34621V29.0408H10.9928V30.1234H10.4434L10.3798 29.5919H9.53259V32.6744L9.99214 32.7603V33.2002H8.34404Z" fill="#E5AB42"/>
<path fill-rule="evenodd" clip-rule="evenodd" d="M10.8853 32.5347H11.6111V33.2002H10.8853V32.5347Z" fill="#E5AB42"/>
<path d="M33.1078 33.2002V32.7232L34.4783 31.246C34.6269 31.0805 34.7435 30.9376 34.8283 30.8174C34.9132 30.6975 34.9727 30.5881 35.0077 30.4891C35.0423 30.3902 35.0599 30.29 35.0599 30.1891C35.0599 30.0082 35.0057 29.855 34.8976 29.729C34.7898 29.6033 34.6336 29.5407 34.4292 29.5407C34.2133 29.5407 34.0475 29.6075 33.932 29.742C33.8162 29.8764 33.7582 30.0634 33.7582 30.3035H33.0526L33.0468 30.2863C33.0412 30.0404 33.0941 29.8191 33.2061 29.6221C33.3178 29.4248 33.4794 29.2687 33.6906 29.1535C33.9016 29.0382 34.1526 28.9808 34.4436 28.9808C34.7232 28.9808 34.9632 29.0312 35.1636 29.1321C35.3642 29.233 35.5189 29.3731 35.6279 29.552C35.7369 29.731 35.7912 29.9376 35.7912 30.1719C35.7912 30.3299 35.7608 30.4833 35.7002 30.6319C35.6395 30.7805 35.5479 30.9346 35.4253 31.0947C35.303 31.2548 35.1494 31.4329 34.9642 31.629L34.0245 32.6318L34.0304 32.646H35.2911L35.3344 32.2146H35.9156V33.2002H33.1078ZM37.8415 32.7059C38.0557 32.7059 38.2186 32.623 38.3302 32.4574C38.4419 32.2918 38.4981 32.0355 38.4981 31.6889V30.5489C38.4981 30.2062 38.4413 29.9521 38.3274 29.7862C38.2136 29.6206 38.0498 29.5377 37.8357 29.5377C37.6198 29.5377 37.4555 29.6202 37.3427 29.7849C37.2299 29.9496 37.1735 30.2043 37.1735 30.5489V31.6889C37.1735 32.0355 37.2306 32.2918 37.3443 32.4574C37.458 32.623 37.6236 32.7059 37.8415 32.7059ZM37.8415 33.2601C37.4118 33.2601 37.072 33.1178 36.8222 32.833C36.5727 32.5483 36.4477 32.1355 36.4477 31.5948V30.6491C36.4477 30.1081 36.5722 29.6948 36.8206 29.409C37.0694 29.1236 37.4077 28.9807 37.8357 28.9807C38.2616 28.9807 38.6003 29.1236 38.8508 29.409C39.1014 29.6948 39.2267 30.1081 39.2267 30.6491V31.5948C39.2267 32.1375 39.1023 32.5508 38.8538 32.8345C38.6051 33.1183 38.2675 33.2601 37.8415 33.2601ZM39.7675 33.2002V32.7232L41.1381 31.246C41.2867 31.0805 41.4033 30.9376 41.488 30.8174C41.5729 30.6975 41.6325 30.5881 41.6675 30.4891C41.702 30.3902 41.7196 30.29 41.7196 30.1891C41.7196 30.0082 41.6654 29.855 41.5574 29.729C41.4495 29.6033 41.2933 29.5407 41.089 29.5407C40.8731 29.5407 40.7072 29.6075 40.5917 29.742C40.4759 29.8764 40.4179 30.0634 40.4179 30.3035H39.7124L39.7065 30.2863C39.701 30.0404 39.7539 29.8191 39.8659 29.6221C39.9776 29.4248 40.1391 29.2687 40.3503 29.1535C40.5613 29.0382 40.8124 28.9808 41.1034 28.9808C41.383 28.9808 41.623 29.0312 41.8234 29.1321C42.0239 29.233 42.1787 29.3731 42.2877 29.552C42.3966 29.731 42.451 29.9376 42.451 30.1719C42.451 30.3299 42.4206 30.4833 42.3599 30.6319C42.2992 30.7805 42.2077 30.9346 42.085 31.0947C41.9628 31.2548 41.8089 31.4329 41.6239 31.629L40.6842 32.6318L40.6901 32.646H41.9509L41.9941 32.2146H42.5753V33.2002H39.7675ZM43.0554 33.2002V32.7603L43.7408 32.6744V29.732L43.0438 29.7377V29.3149L44.4667 29.0407V32.6744L45.152 32.7603V33.2002H43.0554Z" fill="#E5AB42"/>
<path d="M42.5107 15.2366H27.1794V18.633H30.0429L24.2931 39.83H31.6371V36.4363H28.7743V36.4336L34.2168 16.3688V16.3687L35.9756 18.633H45.1489L42.5107 15.2366ZM2.63816 15.2366H17.9694V18.633H15.106L20.8558 39.83H13.5118V36.4363H16.3745V36.4336L10.932 16.3688V16.3687L9.17322 18.633H0L2.63816 15.2366ZM51.0901 26.1513V24.9952L52.2986 24.77V16.6089L51.0901 16.3836V15.2199H55.422V16.3836L54.2136 16.6089V20.0174H59.0548V16.6089L57.8463 16.3836V15.2199H62.1706V16.3836L60.9622 16.6089V24.77L62.1706 24.9952V26.1513H57.8463V24.9952L59.0548 24.77V21.4889H54.2136V24.77L55.422 24.9952V26.1513H51.0901ZM66.4796 21.6841H69.6031L68.1668 17.6375L68.0679 17.3445H68.0223L67.9159 17.6525L66.4796 21.6841ZM62.6568 26.1513V24.9952L63.4625 24.8826L67.1255 15.22H68.9875L72.605 24.8826L73.4106 24.9952V26.1513H69.892V24.9952L70.6823 24.8525L70.097 23.1331H65.978L65.3776 24.8525L66.1757 24.9952V26.1513H62.6568ZM78.9887 26.309C77.8993 26.309 76.9685 26.0801 76.1959 25.622C75.4232 25.1641 74.833 24.5236 74.4251 23.7001C74.0173 22.8768 73.8133 21.9194 73.8133 20.8281V20.5505C73.8133 19.4843 74.0159 18.5397 74.4214 17.7162C74.8266 16.8931 75.4067 16.2447 76.1617 15.7718C76.9165 15.2987 77.8184 15.0623 78.8674 15.0623C79.6018 15.0623 80.2832 15.1701 80.9117 15.3851C81.5396 15.6003 82.0871 15.9031 82.5533 16.2934V18.8161H81.094L80.8964 17.1269C80.7292 17.0067 80.5443 16.9042 80.3417 16.8191C80.1389 16.7341 79.9171 16.669 79.6765 16.6239C79.4357 16.5788 79.1736 16.5563 78.8902 16.5563C78.2263 16.5563 77.6576 16.7216 77.1838 17.0518C76.71 17.3821 76.349 17.8452 76.1009 18.4408C75.8527 19.0364 75.7286 19.7346 75.7286 20.5355V20.8281C75.7286 21.6591 75.8603 22.3737 76.1237 22.9718C76.387 23.5699 76.7659 24.0292 77.2598 24.3493C77.7539 24.6699 78.3452 24.83 79.0343 24.83C79.3689 24.83 79.6993 24.7912 80.026 24.7134C80.3529 24.636 80.6403 24.5347 80.8888 24.4094L81.094 22.8777H82.538V25.3856C82.1122 25.6607 81.5917 25.8837 80.9761 26.0536C80.3605 26.2238 79.6982 26.309 78.9887 26.309ZM83.7691 26.1513V24.9952L84.9776 24.77V16.6089L83.7691 16.3836V15.2199H88.0935V16.3836L86.8926 16.6089V24.77L88.0935 24.9952V26.1513H83.7691ZM89.6064 26.1513V24.9952L90.8149 24.77V16.6089L89.6064 16.3836V15.2199H98.0346V18.0354H96.5451L96.4158 16.6764H92.7299V19.7698H96.6135V21.2338H92.7299V24.7099H96.6211L96.7504 23.321H98.2247V26.1513H89.6064ZM99.2956 26.1513V24.9952L100.504 24.77V16.6089L99.2956 16.3836V15.2199H102.442L107.519 23.2008L107.564 23.1858V16.6089L106.166 16.3836V15.2199H110.498V16.3836L109.289 16.6089V26.1513H107.473L102.275 18.2006L102.229 18.2081V24.77L103.627 24.9952V26.1513H99.2956ZM114.571 24.6948H116.03C116.679 24.6948 117.232 24.5236 117.691 24.1804C118.149 23.8377 118.5 23.3723 118.743 22.784C118.987 22.1961 119.108 21.5339 119.108 20.7981V20.5731C119.108 19.8172 118.987 19.1479 118.743 18.5646C118.5 17.9815 118.149 17.5225 117.691 17.1868C117.232 16.8516 116.679 16.684 116.03 16.684H114.571V24.6948ZM111.44 26.1513V24.9953L112.656 24.7624V16.6239L111.44 16.3835V15.2198H116.076C117.064 15.2198 117.929 15.45 118.671 15.9106C119.413 16.3712 119.992 17.0042 120.408 17.81C120.823 18.6161 121.031 19.5396 121.031 20.5806V20.7981C121.031 21.8244 120.828 22.7416 120.423 23.5499C120.018 24.3583 119.446 24.994 118.709 25.4568C117.972 25.92 117.112 26.1513 116.129 26.1513H111.44ZM125.043 21.6841H128.167L126.73 17.6375L126.632 17.3445H126.586L126.48 17.6525L125.043 21.6841ZM121.22 26.1513V24.9952L122.026 24.8826L125.689 15.22H127.551L131.169 24.8826L131.974 24.9952V26.1513H128.456V24.9952L129.246 24.8525L128.661 23.1331H124.542L123.941 24.8525L124.739 24.9952V26.1513H121.22ZM54.2213 38.3738H55.6804C56.3288 38.3738 56.8822 38.2025 57.3408 37.8594C57.7994 37.5167 58.1505 37.0513 58.3935 36.463C58.6368 35.8751 58.7583 35.213 58.7583 34.4771V34.2521C58.7583 33.4962 58.6368 32.8269 58.3935 32.2436C58.1505 31.6605 57.7994 31.2015 57.3408 30.8659C56.8822 30.5306 56.3288 30.363 55.6804 30.363H54.2213V38.3738ZM51.0901 39.8303V38.6743L52.3062 38.4414V30.3029L51.0901 30.0626V28.8989H55.726C56.714 28.8989 57.5791 29.1291 58.3214 29.5896C59.0634 30.0502 59.6424 30.6832 60.0579 31.489C60.4732 32.2951 60.6809 33.2186 60.6809 34.2596V34.4771C60.6809 35.5034 60.4785 36.4206 60.0731 37.2289C59.6677 38.0374 59.0965 38.6731 58.3594 39.1358C57.6222 39.599 56.7622 39.8303 55.7792 39.8303H51.0901ZM61.707 39.8304V38.6742L62.9156 38.449V30.288L61.707 30.0626V28.8989H70.1353V31.7144H68.6457L68.5165 30.3554H64.8306V33.4488H68.7142V34.9128H64.8306V38.3889H68.7218L68.851 37H70.3254V39.8304H61.707ZM71.6398 39.8304V38.6742L72.8483 38.449V30.288L71.6398 30.0626V28.8989H76.0629V30.0626L74.7633 30.288V38.3814H78.2211L78.3503 36.7296H79.8171V39.8304H71.6398ZM89.9608 39.9881C89.2056 39.9881 88.504 39.8953 87.8555 39.7101C87.2069 39.5252 86.576 39.2172 85.9631 38.7867V36.2716H87.4452L87.6884 37.9009C87.9567 38.0911 88.2873 38.2438 88.6802 38.3588C89.0727 38.4742 89.4995 38.5316 89.9608 38.5316C90.4114 38.5316 90.7902 38.4676 91.0969 38.3402C91.4032 38.2125 91.6377 38.0335 91.7997 37.8033C91.9619 37.5732 92.0431 37.3001 92.0431 36.9849C92.0431 36.6947 91.9719 36.4369 91.8302 36.2116C91.6882 35.9864 91.4528 35.7849 91.1235 35.6072C90.794 35.4296 90.3482 35.2655 89.7859 35.1153C88.9599 34.8953 88.2696 34.6349 87.715 34.3346C87.1602 34.0344 86.742 33.6738 86.461 33.2535C86.1797 32.8331 86.0391 32.3375 86.0391 31.767C86.0391 31.1813 86.1998 30.6632 86.5218 30.2128C86.8434 29.7624 87.2904 29.407 87.8631 29.1468C88.4356 28.8867 89.0968 28.7538 89.8467 28.7488C90.6676 28.7388 91.3931 28.8439 92.0239 29.0641C92.6547 29.2845 93.188 29.5723 93.6238 29.9274V32.2774H92.1723L91.8986 30.7458C91.6909 30.6006 91.4208 30.4768 91.0893 30.3742C90.7572 30.2716 90.3658 30.2203 89.9151 30.2203C89.5299 30.2203 89.1904 30.2831 88.8967 30.4081C88.6029 30.533 88.3724 30.7097 88.2051 30.9374C88.0378 31.1651 87.9542 31.4364 87.9542 31.7519C87.9542 32.0272 88.0275 32.2674 88.1747 32.4726C88.3217 32.6779 88.5674 32.8644 88.9119 33.0321C89.2565 33.1997 89.7223 33.3685 90.3102 33.5389C91.511 33.8541 92.4204 34.2896 93.0385 34.8452C93.6566 35.4008 93.9657 36.109 93.9657 36.9699C93.9657 37.5756 93.7997 38.105 93.4678 38.5577C93.1361 39.0108 92.6699 39.3623 92.0695 39.6125C91.4691 39.8629 90.7661 39.9881 89.9608 39.9881ZM99.8555 38.4865C100.524 38.4865 101.075 38.3176 101.508 37.9796C101.941 37.6417 102.263 37.1701 102.474 36.5643C102.684 35.959 102.789 35.2532 102.789 34.4472V34.2671C102.789 33.4713 102.682 32.773 102.47 32.1723C102.257 31.5716 101.934 31.1014 101.501 30.7608C101.068 30.4206 100.517 30.2503 99.8479 30.2503C99.2095 30.2503 98.6748 30.4206 98.2443 30.7608C97.8137 31.1014 97.4891 31.5716 97.2715 32.1723C97.0537 32.773 96.9448 33.4713 96.9448 34.2671V34.4472C96.9448 35.2482 97.0537 35.9525 97.2715 36.5607C97.4891 37.1688 97.8148 37.6417 98.2479 37.9796C98.6813 38.3176 99.2171 38.4865 99.8555 38.4865ZM99.8555 39.9881C99.1208 39.9881 98.4572 39.8518 97.8641 39.5788C97.2715 39.3061 96.7636 38.9219 96.3405 38.4264C95.9175 37.9309 95.592 37.3452 95.3641 36.6694C95.1359 35.9939 95.0219 35.2532 95.0219 34.4472V34.2821C95.0219 33.4812 95.1359 32.743 95.3641 32.0674C95.592 31.3917 95.9175 30.8047 96.3405 30.3065C96.7636 29.8087 97.2715 29.4233 97.8641 29.1503C98.4572 28.8776 99.1182 28.7413 99.8479 28.7413C100.603 28.7413 101.279 28.8776 101.877 29.1503C102.475 29.4233 102.984 29.8087 103.404 30.3065C103.825 30.8047 104.147 31.3917 104.37 32.0674C104.593 32.743 104.704 33.4812 104.704 34.2821V34.4472C104.704 35.2532 104.593 35.9939 104.37 36.6694C104.147 37.3452 103.825 37.9309 103.404 38.4264C102.984 38.9219 102.475 39.3061 101.877 39.5788C101.279 39.8518 100.605 39.9881 99.8555 39.9881ZM105.7 39.8304V38.6742L106.908 38.449V30.288L105.7 30.0626V28.8989H110.123V30.0626L108.823 30.288V38.3814H112.281L112.41 36.7296H113.877V39.8304H105.7Z" fill="#EBE4DC"/>
</g>
<defs>
<clipPath id="clip0_5304_23612">
<rect width="132" height="40" fill="white"/>
</clipPath>
</defs>
</svg>
