<svg width="32" height="32" viewBox="0 0 32 32" fill="none" xmlns="http://www.w3.org/2000/svg">
<path d="M8.93705 27.105C7.78816 27.105 6.84505 26.6919 6.10771 25.8656C5.37016 25.0392 5.05694 24.0627 5.16805 22.9363H3.17971C2.85927 22.9363 2.58982 22.8266 2.37138 22.6073C2.15316 22.3877 2.04405 22.117 2.04405 21.795C2.04405 21.4727 2.15316 21.2039 2.37138 20.9883C2.58982 20.773 2.85927 20.6653 3.17971 20.6653H6.26438C6.58705 20.3077 6.97638 20.0243 7.43238 19.815C7.88838 19.6054 8.3896 19.5006 8.93605 19.5006C9.48249 19.5006 9.9826 19.6055 10.4364 19.8153C10.8899 20.0253 11.2809 20.3086 11.6094 20.6653H18.2494L21.3557 7.16596H7.46438C7.13305 7.16596 6.86516 7.0563 6.66071 6.83696C6.45649 6.61763 6.35438 6.34707 6.35438 6.0253C6.35438 5.70352 6.46349 5.4333 6.68171 5.21463C6.89994 4.99619 7.17194 4.88696 7.49771 4.88696H22.7644C23.1182 4.88696 23.4138 5.03196 23.6514 5.32196C23.8892 5.61218 23.972 5.93407 23.9 6.28763L22.8347 10.8643H25.858C26.2212 10.8643 26.5619 10.9432 26.8804 11.101C27.199 11.2585 27.4659 11.4809 27.681 11.768L30.26 15.231C30.4614 15.5076 30.5946 15.7941 30.6597 16.0903C30.7248 16.3867 30.7298 16.697 30.6747 17.021L29.684 21.9993C29.6298 22.2682 29.4962 22.4915 29.283 22.6693C29.0699 22.8473 28.8277 22.9363 28.5564 22.9363H26.739C26.8502 24.0676 26.5315 25.0453 25.783 25.8693C25.0344 26.6931 24.0857 27.105 22.937 27.105C21.7882 27.105 20.845 26.6919 20.1077 25.8656C19.3702 25.0392 19.0569 24.0627 19.168 22.9363H12.739C12.8502 24.0676 12.5315 25.0453 11.783 25.8693C11.0344 26.6931 10.0857 27.105 8.93705 27.105ZM21.2617 17.6986H28.1971L28.413 16.5506L25.858 13.1356H22.308L21.2617 17.6986ZM18.516 19.4653L18.7327 18.5946C18.8772 18.0142 19.0383 17.2991 19.216 16.4493C19.3136 16.0622 19.3988 15.6929 19.4717 15.3413C19.5446 14.9895 19.6167 14.6839 19.688 14.4243L19.9014 13.5546C20.0434 12.9746 20.2046 12.2593 20.385 11.4086C20.5655 10.558 20.7237 9.84107 20.8597 9.25796L21.0637 8.3833L21.3557 7.16596L18.2494 20.6653L18.516 19.4653ZM1.98338 17.5846C1.65205 17.5846 1.38416 17.4755 1.17971 17.2573C0.975269 17.0391 0.873047 16.7697 0.873047 16.4493C0.873047 16.1286 0.980825 15.8592 1.19638 15.641C1.41194 15.4227 1.68538 15.3136 2.01671 15.3136H7.35805C7.67849 15.3136 7.94783 15.4233 8.16605 15.6426C8.38427 15.8622 8.49338 16.133 8.49338 16.455C8.49338 16.7772 8.38427 17.0461 8.16605 17.2616C7.94783 17.477 7.67849 17.5846 7.35805 17.5846H1.98338ZM4.65005 12.5426C4.32427 12.5426 4.05216 12.433 3.83371 12.2136C3.61549 11.9943 3.50638 11.7237 3.50638 11.402C3.50638 11.0804 3.61549 10.8103 3.83371 10.5916C4.05216 10.373 4.32427 10.2636 4.65005 10.2636H11.35C11.6698 10.2636 11.9404 10.3749 12.1617 10.5973C12.3828 10.82 12.4934 11.0921 12.4934 11.4136C12.4934 11.7354 12.3828 12.0041 12.1617 12.2196C11.9404 12.435 11.6698 12.5426 11.35 12.5426H4.65005ZM8.95238 24.834C9.36927 24.834 9.72605 24.6804 10.0227 24.3733C10.3196 24.0662 10.468 23.7042 10.468 23.2873C10.468 22.8706 10.3215 22.5139 10.0284 22.217C9.73505 21.9201 9.3716 21.7716 8.93805 21.7716C8.53249 21.7716 8.17571 21.9183 7.86771 22.2116C7.55971 22.5047 7.40571 22.8681 7.40571 23.3016C7.40571 23.7074 7.55927 24.0642 7.86638 24.372C8.17349 24.68 8.53549 24.834 8.95238 24.834ZM22.9524 24.834C23.3693 24.834 23.726 24.6804 24.0227 24.3733C24.3196 24.0662 24.4681 23.7042 24.4681 23.2873C24.4681 22.8706 24.3215 22.5139 24.0284 22.217C23.735 21.9201 23.3716 21.7716 22.938 21.7716C22.5325 21.7716 22.1757 21.9183 21.8677 22.2116C21.5597 22.5047 21.4057 22.8681 21.4057 23.3016C21.4057 23.7074 21.5593 24.0642 21.8664 24.372C22.1735 24.68 22.5355 24.834 22.9524 24.834Z" fill="white"/>
</svg>
