<svg width="20" height="20" viewBox="0 0 20 20" fill="none" xmlns="http://www.w3.org/2000/svg">
<path d="M15.301 16.7604C15.9898 16.7604 16.5787 16.5231 17.0679 16.0483C17.5571 15.5738 17.805 14.9917 17.8117 14.3021H18.5715C18.7719 14.3021 18.9403 14.2339 19.0767 14.0975C19.2131 13.9611 19.2812 13.7927 19.2812 13.5923V4.63813C19.2812 4.25479 19.1405 3.92243 18.859 3.64104C18.5776 3.35951 18.2452 3.21875 17.8619 3.21875H7.21875C6.82847 3.21875 6.49438 3.35778 6.21646 3.63583C5.9384 3.91375 5.79937 4.24785 5.79937 4.63813V6.63813H4.35646C4.13271 6.63813 3.92069 6.68813 3.72042 6.78813C3.52028 6.88799 3.3541 7.02792 3.22187 7.20792L0.858749 10.3519C0.813749 10.4119 0.779165 10.4776 0.754999 10.5492C0.730833 10.6207 0.71875 10.6982 0.71875 10.7817V13.5923C0.71875 13.7927 0.786943 13.9611 0.923332 14.0975C1.05972 14.2339 1.22812 14.3021 1.42854 14.3021H2.25771C2.26771 14.9893 2.51646 15.5708 3.00396 16.0467C3.49146 16.5225 4.07958 16.7604 4.76833 16.7604C5.45722 16.7604 6.04625 16.5231 6.53542 16.0483C7.02444 15.5738 7.27229 14.9917 7.27896 14.3021H12.7952C12.8052 14.986 13.0531 15.5667 13.539 16.0442C14.0248 16.5217 14.6122 16.7604 15.301 16.7604ZM15.3035 15.4506C14.9702 15.4506 14.6855 15.3326 14.4494 15.0965C14.2133 14.8603 14.0952 14.5756 14.0952 14.2423C14.0952 13.909 14.2133 13.6242 14.4494 13.3881C14.6855 13.152 14.9702 13.034 15.3035 13.034C15.6369 13.034 15.9216 13.152 16.1577 13.3881C16.3938 13.6242 16.5119 13.909 16.5119 14.2423C16.5119 14.5756 16.3938 14.8603 16.1577 15.0965C15.9216 15.3326 15.6369 15.4506 15.3035 15.4506ZM17.8619 12.8827H17.3819C17.1469 12.5244 16.852 12.239 16.4973 12.0267C16.1427 11.8144 15.7516 11.7083 15.324 11.7083C14.8963 11.7083 14.5018 11.8169 14.1404 12.034C13.7792 12.2512 13.4821 12.5341 13.2492 12.8827H7.21875V4.63813H17.8619V12.8827ZM4.77083 15.4506C4.4375 15.4506 4.15278 15.3326 3.91667 15.0965C3.68056 14.8603 3.5625 14.5756 3.5625 14.2423C3.5625 13.909 3.68056 13.6242 3.91667 13.3881C4.15278 13.152 4.4375 13.034 4.77083 13.034C5.10417 13.034 5.38889 13.152 5.625 13.3881C5.86111 13.6242 5.97917 13.909 5.97917 14.2423C5.97917 14.5756 5.86111 14.8603 5.625 15.0965C5.38889 15.3326 5.10417 15.4506 4.77083 15.4506ZM5.79937 11.1458H2.04396L4.35646 8.0625H5.79937V11.1458Z" fill="white"/>
<path d="M15.5 8.5H9.5" stroke="white" stroke-width="1.25" stroke-linecap="round"/>
<path d="M10.5 7L9 8.5" stroke="white" stroke-linecap="round"/>
<path d="M9 8.5L10.5 10" stroke="white" stroke-linecap="round"/>
</svg>
