<svg width="326" height="204" viewBox="0 0 326 204" fill="none" xmlns="http://www.w3.org/2000/svg">
<g clip-path="url(#clip0_5063_23462)">
<path d="M97.6865 78.9764L97.5077 78.8488C96.262 77.9761 94.9378 77.1956 93.5706 76.5219L93.363 76.4223L94.3866 67.4123L88.2803 74.5068L88.0727 74.45C86.7199 74.0953 85.3456 73.833 83.9925 73.6769L83.9067 73.6626L83.7776 73.2654L80.7568 64L80.7499 64.0211L80.7427 64L77.7218 73.2654L77.5928 73.6626L77.5069 73.6769C76.1542 73.833 74.7798 74.0953 73.4267 74.45L73.2191 74.5068L67.1131 67.4123L68.1368 76.4223L67.9291 76.5219C66.5617 77.1956 65.2374 77.9761 63.992 78.8488L63.8129 78.9764L57.3991 75.7271L63.2044 86.4964L65.2518 84.7017C67.249 82.9566 72.7537 78.8982 80.7427 78.8771H80.7568C88.7457 78.8982 94.2504 82.9566 96.2476 84.7017L98.295 86.4964L104.1 75.7271L97.6865 78.9764ZM38.0127 127.08V126.245L38.8837 126.081V120.182L38.0127 120.019V119.177H44.0866V121.213H43.0131L42.9201 120.23H40.2637V122.466H43.0623V123.525H40.2637V126.038H43.0677L43.161 125.034H44.2234V127.08H38.0127ZM48.2657 127.194C47.7212 127.194 47.2157 127.127 46.7482 126.994C46.2811 126.86 45.8266 126.637 45.3846 126.326V124.508H46.4524L46.6282 125.685C46.8217 125.823 47.0597 125.933 47.3426 126.017C47.6255 126.1 47.9333 126.141 48.2657 126.141C48.5904 126.141 48.8634 126.095 49.0845 126.003C49.3053 125.911 49.4739 125.781 49.5912 125.615C49.7079 125.448 49.7664 125.251 49.7664 125.023C49.7664 124.813 49.7151 124.627 49.6125 124.464C49.5108 124.301 49.3407 124.156 49.1037 124.027C48.8661 123.899 48.5447 123.781 48.1394 123.672C47.5442 123.512 47.0471 123.324 46.6474 123.107C46.2475 122.89 45.946 122.63 45.7432 122.325C45.5407 122.022 45.4392 121.663 45.4392 121.25C45.4392 120.827 45.5551 120.453 45.7873 120.127C46.0192 119.801 46.3414 119.545 46.7542 119.356C47.1665 119.168 47.6429 119.072 48.1832 119.069C48.7749 119.061 49.2981 119.138 49.7526 119.296C50.2069 119.456 50.5915 119.664 50.9056 119.921V121.62H49.8591L49.662 120.513C49.5126 120.408 49.3182 120.318 49.0788 120.244C48.84 120.17 48.5579 120.132 48.2327 120.132C47.9549 120.132 47.7104 120.178 47.4986 120.268C47.2871 120.359 47.1209 120.486 47.0002 120.651C46.8799 120.815 46.8196 121.012 46.8196 121.24C46.8196 121.439 46.8724 121.613 46.9786 121.761C47.0846 121.909 47.2613 122.044 47.5097 122.165C47.7581 122.286 48.0938 122.409 48.5174 122.532C49.3827 122.76 50.0382 123.075 50.4838 123.476C50.929 123.878 51.1522 124.39 51.1522 125.012C51.1522 125.45 51.0325 125.833 50.7931 126.16C50.554 126.488 50.218 126.742 49.7856 126.923C49.3527 127.104 48.846 127.194 48.2657 127.194ZM53.8029 127.08V126.245L54.6732 126.081V120.225H53.0687L52.9481 121.234H51.913V119.177H58.8195V121.234H57.779L57.6584 120.225H56.0539V126.081L56.9243 126.245V127.08H53.8029Z" fill="#E5AB42"/>
<path fill-rule="evenodd" clip-rule="evenodd" d="M58.6162 125.816H59.9909V127.081H58.6162V125.816Z" fill="#E5AB42"/>
<path d="M100.704 127.08V126.174L103.299 123.368C103.581 123.053 103.802 122.782 103.962 122.553C104.123 122.325 104.236 122.118 104.302 121.929C104.367 121.741 104.401 121.551 104.401 121.359C104.401 121.016 104.298 120.725 104.094 120.485C103.889 120.246 103.593 120.127 103.206 120.127C102.797 120.127 102.483 120.254 102.265 120.51C102.045 120.765 101.936 121.121 101.936 121.577H100.599L100.588 121.544C100.578 121.077 100.678 120.656 100.89 120.282C101.101 119.907 101.408 119.611 101.807 119.392C102.207 119.173 102.683 119.064 103.234 119.064C103.763 119.064 104.218 119.159 104.597 119.351C104.977 119.543 105.27 119.809 105.477 120.149C105.683 120.489 105.786 120.882 105.786 121.327C105.786 121.627 105.728 121.918 105.613 122.201C105.499 122.483 105.325 122.776 105.093 123.08C104.861 123.384 104.57 123.723 104.22 124.095L102.44 126.001L102.451 126.028H104.839L104.921 125.208H106.022V127.08H100.704ZM109.669 126.141C110.075 126.141 110.383 125.984 110.595 125.669C110.806 125.355 110.913 124.868 110.913 124.209V122.043C110.913 121.392 110.805 120.909 110.589 120.594C110.374 120.279 110.064 120.122 109.658 120.122C109.249 120.122 108.938 120.278 108.724 120.592C108.511 120.904 108.404 121.388 108.404 122.043V124.209C108.404 124.868 108.512 125.355 108.727 125.669C108.943 125.984 109.256 126.141 109.669 126.141ZM109.669 127.194C108.855 127.194 108.212 126.924 107.739 126.383C107.266 125.842 107.029 125.058 107.029 124.03V122.233C107.029 121.206 107.265 120.42 107.736 119.877C108.207 119.335 108.847 119.063 109.658 119.063C110.465 119.063 111.106 119.335 111.581 119.877C112.055 120.42 112.293 121.206 112.293 122.233V124.03C112.293 125.061 112.057 125.847 111.586 126.386C111.115 126.925 110.476 127.194 109.669 127.194ZM113.317 127.08V126.174L115.913 123.368C116.194 123.053 116.415 122.782 116.575 122.553C116.736 122.325 116.849 122.118 116.915 121.929C116.981 121.741 117.014 121.551 117.014 121.359C117.014 121.016 116.911 120.725 116.707 120.485C116.502 120.246 116.207 120.127 115.82 120.127C115.411 120.127 115.097 120.254 114.878 120.51C114.658 120.765 114.549 121.121 114.549 121.577H113.212L113.201 121.544C113.191 121.077 113.291 120.656 113.503 120.282C113.715 119.907 114.021 119.611 114.421 119.392C114.82 119.173 115.296 119.064 115.847 119.064C116.376 119.064 116.831 119.159 117.21 119.351C117.59 119.543 117.883 119.809 118.09 120.149C118.296 120.489 118.399 120.882 118.399 121.327C118.399 121.627 118.342 121.918 118.227 122.201C118.112 122.483 117.938 122.776 117.706 123.08C117.474 123.384 117.183 123.723 116.833 124.095L115.053 126.001L115.064 126.028H117.452L117.534 125.208H118.635V127.08H113.317ZM119.544 127.08V126.245L120.842 126.081V120.491L119.522 120.502V119.698L122.217 119.177V126.081L123.515 126.245V127.08H119.544Z" fill="#E5AB42"/>
<path d="M118.513 92.9494H89.4762V99.4025H94.8994L84.0096 139.677H97.9188V133.229H92.4968V133.224L102.805 95.1006V95.1003L106.136 99.4025H123.509L118.513 92.9494ZM42.9965 92.9494H72.033V99.4025H66.6098L77.4996 139.677H63.5904V133.229H69.0124V133.224L58.7046 95.1006V95.1003L55.3735 99.4025H38L42.9965 92.9494ZM134.762 113.687V111.491L137.05 111.063V95.5568L134.762 95.1287V92.9176H142.966V95.1287L140.677 95.5568V102.033H149.846V95.5568L147.557 95.1287V92.9176H155.747V95.1287L153.459 95.5568V111.063L155.747 111.491V113.687H147.557V111.491L149.846 111.063V104.829H140.677V111.063L142.966 111.491V113.687H134.762ZM163.908 105.2H169.824L167.104 97.5111L166.917 96.9545H166.83L166.629 97.5397L163.908 105.2ZM156.668 113.687V111.491L158.194 111.277L165.132 92.9178H168.658L175.509 111.277L177.035 111.491V113.687H170.371V111.491L171.868 111.22L170.759 107.953H162.958L161.821 111.22L163.333 111.491V113.687H156.668ZM187.6 113.987C185.537 113.987 183.774 113.552 182.311 112.682C180.847 111.812 179.729 110.595 178.957 109.03C178.184 107.466 177.798 105.647 177.798 103.573V103.046C177.798 101.02 178.182 99.2253 178.95 97.6607C179.717 96.0967 180.816 94.8649 182.246 93.9663C183.675 93.0674 185.383 92.6182 187.37 92.6182C188.761 92.6182 190.052 92.823 191.242 93.2316C192.431 93.6404 193.468 94.2158 194.351 94.9573V99.7504H191.587L191.213 96.541C190.896 96.3126 190.546 96.1179 190.162 95.9561C189.778 95.7946 189.358 95.6709 188.903 95.5853C188.446 95.4997 187.95 95.4569 187.413 95.4569C186.156 95.4569 185.079 95.7709 184.181 96.3982C183.284 97.0259 182.6 97.9058 182.13 99.0374C181.66 100.169 181.425 101.496 181.425 103.017V103.573C181.425 105.152 181.675 106.51 182.174 107.646C182.672 108.783 183.39 109.655 184.325 110.263C185.261 110.873 186.381 111.177 187.686 111.177C188.32 111.177 188.946 111.103 189.564 110.955C190.184 110.808 190.728 110.616 191.199 110.378L191.587 107.468H194.322V112.232C193.516 112.755 192.53 113.179 191.364 113.502C190.198 113.825 188.944 113.987 187.6 113.987ZM196.654 113.687V111.491L198.942 111.063V95.5568L196.654 95.1287V92.9176H204.844V95.1287L202.569 95.5568V111.063L204.844 111.491V113.687H196.654ZM207.709 113.687V111.491L209.998 111.063V95.5568L207.709 95.1287V92.9176H223.672V98.2671H220.851L220.606 95.685H213.625V101.562H220.98V104.344H213.625V110.949H220.995L221.239 108.31H224.032V113.687H207.709ZM226.06 113.687V111.491L228.349 111.063V95.5568L226.06 95.1287V92.9176H232.019L241.634 108.081L241.72 108.053V95.5568L239.072 95.1287V92.9176H247.276V95.1287L244.987 95.5568V113.687H241.547L231.702 98.5811L231.616 98.5953V111.063L234.264 111.491V113.687H226.06ZM254.991 110.92H257.754C258.982 110.92 260.031 110.595 260.899 109.943C261.768 109.291 262.433 108.407 262.893 107.289C263.353 106.172 263.584 104.914 263.584 103.516V103.089C263.584 101.653 263.353 100.381 262.893 99.2726C262.433 98.1647 261.768 97.2926 260.899 96.6548C260.031 96.0179 258.982 95.6995 257.754 95.6995H254.991V110.92ZM249.061 113.687V111.491L251.364 111.048V95.5853L249.061 95.1286V92.9176H257.841C259.712 92.9176 261.351 93.355 262.756 94.23C264.162 95.1051 265.258 96.3079 266.045 97.8389C266.832 99.3704 267.225 101.125 267.225 103.103V103.516C267.225 105.466 266.842 107.209 266.074 108.745C265.306 110.281 264.224 111.489 262.828 112.368C261.432 113.248 259.803 113.687 257.942 113.687H249.061ZM274.824 105.2H280.74L278.02 97.5111L277.833 96.9545H277.746L277.545 97.5397L274.824 105.2ZM267.584 113.687V111.491L269.11 111.277L276.048 92.9178H279.574L286.425 111.277L287.951 111.491V113.687H281.287V111.491L282.784 111.22L281.676 107.953H273.874L272.737 111.22L274.249 111.491V113.687H267.584ZM140.692 136.91H143.455C144.683 136.91 145.732 136.585 146.6 135.933C147.469 135.282 148.133 134.397 148.594 133.28C149.055 132.163 149.285 130.905 149.285 129.506V129.079C149.285 127.643 149.055 126.371 148.594 125.263C148.133 124.155 147.469 123.283 146.6 122.645C145.732 122.008 144.683 121.69 143.455 121.69H140.692V136.91ZM134.762 139.678V137.481L137.065 137.039V121.575L134.762 121.119V118.908H143.542C145.413 118.908 147.051 119.345 148.457 120.22C149.862 121.095 150.959 122.298 151.746 123.829C152.533 125.361 152.926 127.115 152.926 129.093V129.506C152.926 131.456 152.543 133.199 151.775 134.735C151.007 136.271 149.925 137.479 148.529 138.358C147.133 139.238 145.504 139.678 143.642 139.678H134.762ZM154.869 139.678V137.481L157.158 137.053V121.547L154.869 121.119V118.908H170.832V124.257H168.011L167.766 121.675H160.785V127.553H168.14V130.334H160.785V136.939H168.155L168.4 134.3H171.192V139.678H154.869ZM173.681 139.678V137.481L175.97 137.053V121.547L173.681 121.119V118.908H182.059V121.119L179.597 121.547V136.924H186.146L186.391 133.786H189.169V139.678H173.681ZM208.38 139.977C206.95 139.977 205.621 139.801 204.393 139.449C203.165 139.098 201.97 138.513 200.809 137.695V132.916H203.616L204.076 136.012C204.585 136.373 205.211 136.663 205.955 136.882C206.698 137.101 207.507 137.21 208.38 137.21C209.234 137.21 209.951 137.088 210.532 136.846C211.112 136.604 211.556 136.263 211.863 135.826C212.17 135.389 212.324 134.87 212.324 134.271C212.324 133.72 212.189 133.23 211.921 132.802C211.652 132.374 211.206 131.991 210.582 131.653C209.958 131.316 209.114 131.004 208.049 130.719C206.485 130.301 205.177 129.806 204.127 129.236C203.076 128.665 202.284 127.98 201.752 127.182C201.219 126.383 200.953 125.441 200.953 124.357C200.953 123.244 201.257 122.26 201.867 121.404C202.476 120.548 203.323 119.873 204.407 119.379C205.492 118.885 206.744 118.632 208.164 118.623C209.719 118.604 211.093 118.803 212.288 119.222C213.482 119.64 214.493 120.187 215.318 120.862V125.327H212.569L212.05 122.417C211.657 122.141 211.145 121.906 210.518 121.711C209.889 121.516 209.147 121.418 208.294 121.418C207.564 121.418 206.921 121.538 206.365 121.775C205.808 122.013 205.372 122.348 205.055 122.781C204.738 123.214 204.58 123.729 204.58 124.329C204.58 124.852 204.719 125.308 204.997 125.698C205.276 126.088 205.741 126.442 206.394 126.761C207.046 127.079 207.929 127.4 209.042 127.724C211.316 128.323 213.039 129.15 214.209 130.206C215.38 131.261 215.965 132.607 215.965 134.243C215.965 135.393 215.651 136.399 215.022 137.26C214.394 138.12 213.511 138.788 212.374 139.264C211.237 139.739 209.906 139.977 208.38 139.977ZM227.12 137.124C228.387 137.124 229.43 136.803 230.251 136.161C231.071 135.519 231.68 134.623 232.079 133.472C232.477 132.322 232.676 130.981 232.676 129.45V129.107C232.676 127.595 232.474 126.269 232.071 125.127C231.669 123.986 231.057 123.092 230.236 122.445C229.416 121.799 228.372 121.476 227.106 121.476C225.897 121.476 224.884 121.799 224.069 122.445C223.253 123.092 222.639 123.986 222.226 125.127C221.814 126.269 221.608 127.595 221.608 129.107V129.45C221.608 130.971 221.814 132.31 222.226 133.465C222.639 134.621 223.255 135.519 224.076 136.161C224.896 136.803 225.911 137.124 227.12 137.124ZM227.12 139.977C225.729 139.977 224.472 139.718 223.349 139.2C222.226 138.681 221.264 137.951 220.463 137.01C219.662 136.069 219.045 134.956 218.614 133.672C218.182 132.388 217.966 130.981 217.966 129.45V129.136C217.966 127.614 218.182 126.212 218.614 124.928C219.045 123.644 219.662 122.529 220.463 121.582C221.264 120.636 222.226 119.904 223.349 119.386C224.472 118.867 225.724 118.608 227.106 118.608C228.535 118.608 229.816 118.867 230.949 119.386C232.081 119.904 233.045 120.636 233.842 121.582C234.638 122.529 235.247 123.644 235.67 124.928C236.092 126.212 236.303 127.614 236.303 129.136V129.45C236.303 130.981 236.092 132.388 235.67 133.672C235.247 134.956 234.638 136.069 233.842 137.01C233.045 137.951 232.081 138.681 230.949 139.2C229.816 139.718 228.54 139.977 227.12 139.977ZM238.189 139.678V137.481L240.478 137.053V121.547L238.189 121.119V118.908H246.566V121.119L244.104 121.547V136.924H250.653L250.898 133.786H253.676V139.678H238.189Z" fill="#EBE4DC"/>
</g>
<defs>
<clipPath id="clip0_5063_23462">
<rect width="250" height="76" fill="white" transform="translate(38 64)"/>
</clipPath>
</defs>
</svg>
