<svg width="32" height="32" viewBox="0 0 32 32" fill="none" xmlns="http://www.w3.org/2000/svg">
<path d="M16.0493 28.0877C15.7444 28.0877 15.4935 27.9906 15.2966 27.7964C15.0997 27.6021 15.0013 27.3526 15.0013 27.0477V25.2717C13.9135 25.0886 12.9905 24.7041 12.2323 24.1184C11.4741 23.5328 10.8812 22.7929 10.4536 21.8987C10.3319 21.6329 10.3345 21.3547 10.4616 21.064C10.5887 20.7736 10.7989 20.5675 11.092 20.4457C11.3524 20.3346 11.6197 20.3372 11.894 20.4537C12.168 20.5701 12.385 20.7638 12.545 21.0347C12.9396 21.7691 13.4539 22.3172 14.0876 22.679C14.7214 23.0408 15.442 23.2217 16.2493 23.2217C17.3 23.2217 18.1577 22.9644 18.8226 22.4497C19.4877 21.935 19.8203 21.2296 19.8203 20.3334C19.8203 19.3822 19.5134 18.6414 18.8996 18.1107C18.2859 17.5798 17.1372 17.0419 15.4536 16.497C13.8643 15.9966 12.6725 15.3148 11.8783 14.4517C11.0841 13.5888 10.687 12.516 10.687 11.2334C10.687 10.0271 11.0747 9.00358 11.8503 8.16269C12.6259 7.3218 13.6762 6.83257 15.0013 6.69502V4.95235C15.0013 4.64746 15.0997 4.39791 15.2966 4.20369C15.4935 4.00946 15.7444 3.91235 16.0493 3.91235C16.3542 3.91235 16.6036 4.00946 16.7976 4.20369C16.9919 4.39791 17.089 4.64746 17.089 4.95235V6.69502C17.8836 6.8168 18.603 7.06658 19.247 7.44435C19.891 7.82213 20.4267 8.31624 20.8543 8.92669C21.0205 9.17024 21.0539 9.4318 20.9543 9.71135C20.8547 9.99069 20.6584 10.1912 20.3653 10.313C20.1102 10.4295 19.8413 10.4419 19.5586 10.3504C19.276 10.2588 19.0272 10.0828 18.8123 9.82235C18.5065 9.44369 18.1299 9.16258 17.6823 8.97902C17.2347 8.79546 16.702 8.70369 16.084 8.70369C15.0884 8.70369 14.3039 8.92502 13.7303 9.36769C13.157 9.81058 12.8703 10.416 12.8703 11.184C12.8703 11.9967 13.1876 12.6588 13.8223 13.1704C14.4572 13.6819 15.6853 14.2181 17.5066 14.779C19.0282 15.2564 20.1581 15.9392 20.8963 16.8277C21.6345 17.7159 22.0036 18.84 22.0036 20.2C22.0036 21.616 21.5885 22.7585 20.7583 23.6274C19.9281 24.496 18.705 25.0552 17.089 25.305V27.0477C17.089 27.3526 16.9906 27.6021 16.794 27.7964C16.5971 27.9906 16.3489 28.0877 16.0493 28.0877Z" fill="#0F0F0F"/>
<path d="M16.0493 28.0877C15.7444 28.0877 15.4935 27.9906 15.2966 27.7964C15.0997 27.6021 15.0013 27.3526 15.0013 27.0477V25.2717C13.9135 25.0886 12.9905 24.7041 12.2323 24.1184C11.4741 23.5328 10.8812 22.7929 10.4536 21.8987C10.3319 21.6329 10.3345 21.3547 10.4616 21.064C10.5887 20.7736 10.7989 20.5675 11.092 20.4457C11.3524 20.3346 11.6197 20.3372 11.894 20.4537C12.168 20.5701 12.385 20.7638 12.545 21.0347C12.9396 21.7691 13.4539 22.3172 14.0876 22.679C14.7214 23.0408 15.442 23.2217 16.2493 23.2217C17.3 23.2217 18.1577 22.9644 18.8226 22.4497C19.4877 21.935 19.8203 21.2296 19.8203 20.3334C19.8203 19.3822 19.5134 18.6414 18.8996 18.1107C18.2859 17.5798 17.1372 17.0419 15.4536 16.497C13.8643 15.9966 12.6725 15.3148 11.8783 14.4517C11.0841 13.5888 10.687 12.516 10.687 11.2334C10.687 10.0271 11.0747 9.00358 11.8503 8.16269C12.6259 7.3218 13.6762 6.83257 15.0013 6.69502V4.95235C15.0013 4.64746 15.0997 4.39791 15.2966 4.20369C15.4935 4.00946 15.7444 3.91235 16.0493 3.91235C16.3542 3.91235 16.6036 4.00946 16.7976 4.20369C16.9919 4.39791 17.089 4.64746 17.089 4.95235V6.69502C17.8836 6.8168 18.603 7.06658 19.247 7.44435C19.891 7.82213 20.4267 8.31624 20.8543 8.92669C21.0205 9.17024 21.0539 9.4318 20.9543 9.71135C20.8547 9.99069 20.6584 10.1912 20.3653 10.313C20.1102 10.4295 19.8413 10.4419 19.5586 10.3504C19.276 10.2588 19.0272 10.0828 18.8123 9.82235C18.5065 9.44369 18.1299 9.16258 17.6823 8.97902C17.2347 8.79546 16.702 8.70369 16.084 8.70369C15.0884 8.70369 14.3039 8.92502 13.7303 9.36769C13.157 9.81058 12.8703 10.416 12.8703 11.184C12.8703 11.9967 13.1876 12.6588 13.8223 13.1704C14.4572 13.6819 15.6853 14.2181 17.5066 14.779C19.0282 15.2564 20.1581 15.9392 20.8963 16.8277C21.6345 17.7159 22.0036 18.84 22.0036 20.2C22.0036 21.616 21.5885 22.7585 20.7583 23.6274C19.9281 24.496 18.705 25.0552 17.089 25.305V27.0477C17.089 27.3526 16.9906 27.6021 16.794 27.7964C16.5971 27.9906 16.3489 28.0877 16.0493 28.0877Z" fill="white"/>
</svg>
