<svg width="32" height="32" viewBox="0 0 32 32" fill="none" xmlns="http://www.w3.org/2000/svg">
<path d="M14.9056 29.5327C14.6196 29.5327 14.3361 29.4801 14.055 29.375C13.7738 29.2699 13.5193 29.1097 13.2913 28.8944L3.14695 18.7167C2.92051 18.5122 2.75062 18.2656 2.63729 17.9767C2.52395 17.6876 2.46729 17.4008 2.46729 17.1164C2.46729 16.8301 2.52184 16.5464 2.63095 16.265C2.74029 15.9837 2.91229 15.7289 3.14695 15.5007L15.5246 3.13902C15.7302 2.92924 15.9752 2.76357 16.2596 2.64202C16.5441 2.52024 16.838 2.45935 17.1413 2.45935H27.311C27.9354 2.45935 28.47 2.68179 28.9146 3.12668C29.3595 3.57135 29.582 4.1059 29.582 4.73035V14.8747C29.582 15.1791 29.5184 15.4693 29.3913 15.7453C29.2642 16.0213 29.1012 16.2616 28.9023 16.466L16.4993 28.8944C16.2711 29.0986 16.0198 29.256 15.7456 29.3667C15.4714 29.4774 15.1914 29.5327 14.9056 29.5327ZM14.8493 27.3284L27.311 14.8077V4.73835H17.1516L4.71295 17.1587L14.8493 27.3284ZM23.818 9.91435C24.2853 9.91435 24.6898 9.74346 25.0316 9.40168C25.3734 9.05968 25.5443 8.65713 25.5443 8.19402C25.5443 7.73091 25.3736 7.32813 25.0323 6.98568C24.6912 6.64302 24.287 6.47168 23.8196 6.47168C23.3525 6.47168 22.9493 6.64224 22.61 6.98335C22.2708 7.32468 22.1013 7.72713 22.1013 8.19068C22.1013 8.65424 22.2706 9.05746 22.6093 9.40035C22.9477 9.74302 23.3506 9.91435 23.818 9.91435Z" fill="white"/>
</svg>
