<svg width="20" height="20" viewBox="0 0 20 20" fill="none" xmlns="http://www.w3.org/2000/svg">
<path d="M4.69896 16.7604C4.01021 16.7604 3.42125 16.5231 2.93208 16.0483C2.44292 15.5738 2.195 14.9917 2.18833 14.3021H1.42854C1.22813 14.3021 1.05972 14.2339 0.923333 14.0975C0.786944 13.9611 0.71875 13.7927 0.71875 13.5923V4.63813C0.71875 4.25479 0.859514 3.92243 1.14104 3.64104C1.42243 3.35951 1.75479 3.21875 2.13812 3.21875H12.7812C13.1715 3.21875 13.5056 3.35778 13.7835 3.63583C14.0616 3.91375 14.2006 4.24785 14.2006 4.63813V6.63813H15.6435C15.8673 6.63813 16.0793 6.68813 16.2796 6.78813C16.4797 6.88799 16.6459 7.02792 16.7781 7.20792L19.1413 10.3519C19.1863 10.4119 19.2208 10.4776 19.245 10.5492C19.2692 10.6207 19.2812 10.6982 19.2812 10.7817V13.5923C19.2812 13.7927 19.2131 13.9611 19.0767 14.0975C18.9403 14.2339 18.7719 14.3021 18.5715 14.3021H17.7423C17.7323 14.9893 17.4835 15.5708 16.996 16.0467C16.5085 16.5225 15.9204 16.7604 15.2317 16.7604C14.5428 16.7604 13.9537 16.5231 13.4646 16.0483C12.9756 15.5738 12.7277 14.9917 12.721 14.3021H7.20479C7.19479 14.986 6.94688 15.5667 6.46104 16.0442C5.97521 16.5217 5.38785 16.7604 4.69896 16.7604ZM4.69646 15.4506C5.02979 15.4506 5.31451 15.3326 5.55062 15.0965C5.78674 14.8603 5.90479 14.5756 5.90479 14.2423C5.90479 13.909 5.78674 13.6242 5.55062 13.3881C5.31451 13.152 5.02979 13.034 4.69646 13.034C4.36312 13.034 4.0784 13.152 3.84229 13.3881C3.60618 13.6242 3.48812 13.909 3.48812 14.2423C3.48812 14.5756 3.60618 14.8603 3.84229 15.0965C4.0784 15.3326 4.36312 15.4506 4.69646 15.4506ZM2.13812 12.8827H2.61812C2.85313 12.5244 3.14799 12.239 3.50271 12.0267C3.85729 11.8144 4.2484 11.7083 4.67604 11.7083C5.10368 11.7083 5.49819 11.8169 5.85958 12.034C6.22083 12.2512 6.51792 12.5341 6.75083 12.8827H12.7812V4.63813H2.13812V12.8827ZM15.2292 15.4506C15.5625 15.4506 15.8472 15.3326 16.0833 15.0965C16.3194 14.8603 16.4375 14.5756 16.4375 14.2423C16.4375 13.909 16.3194 13.6242 16.0833 13.3881C15.8472 13.152 15.5625 13.034 15.2292 13.034C14.8958 13.034 14.6111 13.152 14.375 13.3881C14.1389 13.6242 14.0208 13.909 14.0208 14.2423C14.0208 14.5756 14.1389 14.8603 14.375 15.0965C14.6111 15.3326 14.8958 15.4506 15.2292 15.4506ZM14.2006 11.1458H17.956L15.6435 8.0625H14.2006V11.1458Z" fill="white"/>
<path d="M4.5 8.5H10.5" stroke="white" stroke-width="1.25" stroke-linecap="round"/>
<path d="M9.5 7L11 8.5" stroke="white" stroke-linecap="round"/>
<path d="M11 8.5L9.5 10" stroke="white" stroke-linecap="round"/>
</svg>
