<svg width="24" height="24" viewBox="0 0 24 24" fill="none" xmlns="http://www.w3.org/2000/svg">
<path d="M3.79688 20.3518V4.50002C3.79688 4.03835 3.96579 3.6381 4.30363 3.29927C4.64129 2.96027 5.04013 2.79077 5.50013 2.79077H12.2251C12.6868 2.79077 13.087 2.96027 13.4259 3.29927C13.7649 3.6381 13.9344 4.03835 13.9344 4.50002V11.8375H15.6371C15.9935 11.8375 16.2969 11.9629 16.5474 12.2138C16.7977 12.4644 16.9229 12.7657 16.9229 13.1175V18.5925C16.9229 18.9452 17.0487 19.2409 17.3004 19.4795C17.5519 19.7182 17.856 19.8375 18.2126 19.8375C18.5711 19.8375 18.8765 19.7182 19.1286 19.4795C19.381 19.2409 19.5071 18.9452 19.5071 18.5925V10.9663C19.3278 11.0623 19.1399 11.1343 18.9434 11.1823C18.7467 11.2303 18.553 11.2543 18.3621 11.2543C17.6925 11.2543 17.1284 11.0245 16.6699 10.565C16.2114 10.1054 15.9821 9.53985 15.9821 8.86852C15.9821 8.34952 16.1291 7.8791 16.4231 7.45727C16.7173 7.03544 17.1124 6.75385 17.6084 6.61252L15.7131 4.71752C15.5798 4.58435 15.5121 4.42744 15.5101 4.24677C15.5081 4.06594 15.5758 3.90686 15.7131 3.76952C15.8505 3.62819 16.0085 3.56269 16.1871 3.57302C16.3658 3.58335 16.5238 3.65719 16.6611 3.79452L19.9164 7.05002C20.1737 7.30719 20.3891 7.58327 20.5626 7.87827C20.7361 8.17327 20.8229 8.50335 20.8229 8.86852V18.5925C20.8229 19.3269 20.5718 19.9455 20.0696 20.4485C19.5675 20.9517 18.9498 21.2033 18.2166 21.2033C17.4853 21.2033 16.8675 20.9517 16.3634 20.4485C15.8592 19.9455 15.6071 19.3261 15.6071 18.5903V13.1533H13.9344V20.3518C13.9344 20.5921 13.8514 20.7941 13.6854 20.9578C13.5195 21.1214 13.3167 21.2033 13.0769 21.2033H4.64837C4.40804 21.2033 4.20604 21.1214 4.04238 20.9578C3.87871 20.7941 3.79688 20.5921 3.79688 20.3518ZM5.50013 10.2H12.2251V4.50002H5.50013V10.2ZM18.3626 9.93252C18.6545 9.93252 18.9056 9.82761 19.1161 9.61777C19.3268 9.40777 19.4321 9.15777 19.4321 8.86777C19.4321 8.57777 19.3266 8.32802 19.1156 8.11852C18.9046 7.90902 18.6533 7.80427 18.3616 7.80427C18.07 7.80427 17.8198 7.90927 17.6111 8.11927C17.4023 8.32911 17.2979 8.57902 17.2979 8.86902C17.2979 9.15919 17.4029 9.40894 17.6129 9.61827C17.8227 9.82777 18.0726 9.93252 18.3626 9.93252ZM5.50013 19.5H12.2251V11.7H5.50013V19.5Z" fill="#E5AB42"/>
</svg>
