<svg width="24" height="24" viewBox="0 0 24 24" fill="none" xmlns="http://www.w3.org/2000/svg">
<path d="M11.0001 14.6017V16.4017C11.0001 16.685 11.098 16.9184 11.2936 17.1017C11.4891 17.285 11.7266 17.3767 12.0061 17.3767C12.2855 17.3767 12.5168 17.2795 12.7001 17.085C12.8835 16.8905 12.9751 16.6544 12.9751 16.3767V14.6017H14.8251C15.103 14.6017 15.339 14.5039 15.5334 14.3082C15.7279 14.1125 15.8251 13.876 15.8251 13.5987C15.8251 13.3212 15.7279 13.0856 15.5334 12.892C15.339 12.6985 15.103 12.6017 14.8251 12.6017H12.9751V10.8017C12.9751 10.5222 12.8835 10.2898 12.7001 10.1045C12.5168 9.9193 12.2855 9.82671 12.0061 9.82671C11.7266 9.82671 11.4891 9.9193 11.2936 10.1045C11.098 10.2898 11.0001 10.5222 11.0001 10.8017V12.6017H9.17513C8.89729 12.6017 8.66121 12.7005 8.46688 12.898C8.27238 13.0956 8.17513 13.3331 8.17513 13.6105C8.17513 13.888 8.27238 14.1225 8.46688 14.3142C8.66121 14.5059 8.89729 14.6017 9.17513 14.6017H11.0001ZM6.50013 21.311C6.03179 21.311 5.63079 21.1435 5.29713 20.8087C4.96363 20.474 4.79688 20.0717 4.79688 19.6017V7.62672C4.79688 7.15822 4.96363 6.75722 5.29713 6.42372C5.63079 6.09005 6.03179 5.92321 6.50013 5.92321H17.5001C17.9701 5.92321 18.3725 6.09005 18.7074 6.42372C19.042 6.75722 19.2094 7.15822 19.2094 7.62672V19.6017C19.2094 20.0717 19.042 20.474 18.7074 20.8087C18.3725 21.1435 17.9701 21.311 17.5001 21.311H6.50013ZM6.50013 19.6017H17.5001V7.62672H6.50013V19.6017ZM6.71438 4.39821C6.47388 4.39821 6.27179 4.31596 6.10813 4.15146C5.94446 3.98696 5.86263 3.78288 5.86263 3.53922C5.86263 3.29572 5.94446 3.09313 6.10813 2.93147C6.27179 2.7698 6.47388 2.68896 6.71438 2.68896H17.3109C17.5514 2.68896 17.7535 2.7713 17.9171 2.93596C18.0808 3.10046 18.1626 3.30455 18.1626 3.54821C18.1626 3.79171 18.0808 3.9943 17.9171 4.15596C17.7535 4.31746 17.5514 4.39821 17.3109 4.39821H6.71438Z" fill="#E5AB42"/>
</svg>
