<svg width="24" height="24" viewBox="0 0 24 24" fill="none" xmlns="http://www.w3.org/2000/svg">
<path d="M2.5826 20.3347C2.3341 20.3347 2.1291 20.254 1.9676 20.0925C1.80593 19.9308 1.7251 19.7277 1.7251 19.4832C1.7251 19.2386 1.80593 19.0355 1.9676 18.874C2.1291 18.7123 2.3341 18.6315 2.5826 18.6315H7.8326C7.56993 17.4395 7.05927 16.3603 6.3006 15.394C5.54193 14.4277 4.65826 13.6532 3.6496 13.0707C3.23826 12.8301 3.0696 12.5905 3.1436 12.352C3.21743 12.1133 3.48901 12 3.95835 12.012C6.22351 12.0558 8.1301 12.8767 9.6781 14.4745C11.2261 16.0723 12.0001 18.0257 12.0001 20.3347H2.5826ZM13.5001 20.3347C13.5001 19.6227 13.4324 18.9913 13.2971 18.4405C13.1618 17.8897 12.9881 17.3419 12.7761 16.7972C13.4468 15.3027 14.4518 14.1395 15.7911 13.3075C17.1304 12.4757 18.5453 12.0438 20.0358 12.012C20.517 12 20.7956 12.1123 20.8716 12.349C20.9474 12.5855 20.7778 12.832 20.3626 13.0885C19.3246 13.6878 18.4243 14.477 17.6616 15.456C16.8989 16.435 16.4028 17.4935 16.1733 18.6315H21.4233C21.668 18.6315 21.8711 18.7123 22.0326 18.874C22.1943 19.0355 22.2751 19.2386 22.2751 19.4832C22.2751 19.7277 22.1943 19.9308 22.0326 20.0925C21.8711 20.254 21.668 20.3347 21.4233 20.3347H13.5001ZM12.0621 15.3842C11.7969 13.2031 12.2072 11.2897 13.2928 9.64425C14.3785 7.99875 15.8183 6.87708 17.6121 6.27925C18.0606 6.12608 18.3657 6.1565 18.5273 6.3705C18.6889 6.58433 18.6117 6.84891 18.2958 7.16425C17.6585 7.78408 17.093 8.48433 16.5993 9.265C16.1057 10.0455 15.7755 10.8544 15.6088 11.6917C14.8555 12.0537 14.1669 12.5662 13.5431 13.229C12.9191 13.8918 12.4254 14.6102 12.0621 15.3842ZM10.5191 13.4125C10.2404 13.1465 9.93285 12.8796 9.59635 12.6117C9.25968 12.3437 8.98102 12.1431 8.76035 12.0097C8.81435 11.7977 8.85485 11.559 8.88185 11.2935C8.90885 11.0278 8.92235 10.8181 8.92235 10.6642C8.92235 9.74358 8.81502 8.85525 8.60035 7.99925C8.38568 7.14325 8.08035 6.32991 7.68435 5.55925C7.45168 5.13608 7.44635 4.85683 7.66835 4.7215C7.89018 4.58616 8.1881 4.66375 8.5621 4.95425C9.3121 5.53691 9.95993 6.22792 10.5056 7.02725C11.0513 7.82642 11.4574 8.711 11.7241 9.681C11.4121 10.2303 11.1479 10.8314 10.9316 11.4842C10.7153 12.1371 10.5778 12.7798 10.5191 13.4125Z" fill="#E5AB42"/>
</svg>
